# xmcd
#
# Track frame offsets: 
#        150
#        11454
#        22904
#        33584
#        47325
#        57966
#        69166
#        79484
#        91130
#        101361
#        112401
#        123797
#
# Disc length: 1764 seconds
#
# Revision: 0
# Processed by: cddbd v1.5.2PL0 Copyright (c) Steve Scherf et al.
# Submitted via: ExactAudioCopy v0.99pb4
#
DISCID=8c06e20c
DTITLE=Patsy Cline - Patsy Cline Legends In Music cd 1 of 2
DYEAR=1900
DGENRE=Country
TTITLE0=Crazy Dreams
TTITLE1=Walking After Midnight
TTITLE2=I Can See An Angel Walkin'
TTITLE3=A Chufch,A Courtroom And Then Goodbye
TTITLE4=Honkey Tonk Merry Go Round
TTITLE5=Hungry for Love
TTITLE6=Pick Me Up
TTITLE7=A Poor Man's Roses (Or A Rich Man's Gold 
TTITLE8=How Can I Face Tomorrow
TTITLE9=A Stranger In My Arms
TTITLE10=The Heart You Break May Be Your Own
TTITLE11=Ain't  No Wheels On This Ship
EXTD=
EXTT0=
EXTT1=
EXTT2=
EXTT3=
EXTT4=
EXTT5=
EXTT6=
EXTT7=
EXTT8=
EXTT9=
EXTT10=
EXTT11=
PLAYORDER=
